<?xml version="1.0" encoding="UTF-8" standalone="no"?><svg xmlns="http://www.w3.org/2000/svg" xmlns:xlink="http://www.w3.org/1999/xlink" fill="#000000" height="178.8" preserveAspectRatio="xMidYMid meet" version="1" viewBox="-0.7 -12.2 200.0 178.8" width="200" zoomAndPan="magnify"><g><g id="change1_2"><path d="M194.209,166.603c-2.839,0-5.135-2.296-5.135-5.134V70.93c0-3.398-2.764-6.161-6.16-6.161H15.778 c-3.403,0-6.169,2.762-6.169,6.161v90.539c0,2.838-2.296,5.134-5.134,5.134s-5.134-2.296-5.134-5.134V70.93 c0-9.059,7.375-16.428,16.438-16.428h167.136c9.057,0,16.426,7.37,16.426,16.428v90.539 C199.34,164.307,197.044,166.603,194.209,166.603z" fill="#8f8989"/></g><g id="change1_4"><path d="M177.901,49.76c-2.839,0-5.135-2.296-5.135-5.133V4.201c0-3.398-2.767-6.161-6.166-6.161H35.361 c-3.4,0-6.167,2.762-6.167,6.161v40.426c0,2.837-2.296,5.133-5.134,5.133s-5.134-2.296-5.134-5.133V4.201 c0-9.059,7.37-16.427,16.435-16.427h131.239c9.062,0,16.432,7.368,16.432,16.427v40.426 C183.032,47.464,180.736,49.76,177.901,49.76z" fill="#8f8989"/></g><g id="change1_5"><path d="M194.209,124.233H4.475c-2.838,0-5.134-2.296-5.134-5.135c0-2.838,2.296-5.134,5.134-5.134h189.734 c2.835,0,5.131,2.296,5.131,5.134C199.34,121.938,197.044,124.233,194.209,124.233z" fill="#8f8989"/></g><g id="change1_3"><path d="M194.209,140.189H4.475c-2.838,0-5.134-2.296-5.134-5.134c0-2.839,2.296-5.135,5.134-5.135h189.734 c2.835,0,5.131,2.296,5.131,5.135C199.34,137.894,197.044,140.189,194.209,140.189z" fill="#8f8989"/></g><g id="change1_1"><path d="M135.886,49.76c-2.839,0-5.132-2.296-5.132-5.133V30.77c0-2.045-1.665-3.709-3.715-3.709h-52.11 c-2.05,0-3.715,1.664-3.715,3.709v13.857c0,2.837-2.296,5.133-5.134,5.133c-2.836,0-5.132-2.296-5.132-5.133V30.77 c0-7.704,6.271-13.976,13.981-13.976h52.11c7.709,0,13.98,6.271,13.98,13.976v13.857C141.02,47.464,138.724,49.76,135.886,49.76z" fill="#8f8989"/></g></g></svg>